<?xml version="1.0" encoding="utf-8" standalone="yes"?>
<!DOCTYPE svg PUBLIC "-//W3C//DTD SVG 1.1//EN" "http://www.w3.org/Graphics/SVG/1.1/DTD/svg11.dtd">
<!-- Generator: Adobe Illustrator 16.0.4, SVG Export Plug-In . SVG Version: 6.00 Build 0)  --><svg xmlns="http://www.w3.org/2000/svg" xmlns:xlink="http://www.w3.org/1999/xlink" version="1.1" x="0px" y="0px" width="300.28px" height="387.28px" viewBox="0 0 300.28 387.28" enable-background="new 0 0 300.28 387.28" xml:space="preserve" style="zoom: 1;"><g id="temp"></g><g id="body"></g><g id="artwork"><g><rect x="184.49" y="132.51" transform="matrix(1 4.471006e-03 -4.471006e-03 1 0.6453 -0.9545)" fill="#C69DC9" stroke="#000000" stroke-linecap="round" stroke-linejoin="round" width="58.65" height="22.69"></rect><polygon fill="#AAD29A" stroke="#000000" stroke-linecap="round" stroke-linejoin="round" points="287.73,155.53 239.23,155.31 228.9,144.16 239.33,132.62 287.83,132.84"></polygon><text transform="matrix(1 4.500000e-03 -4.500000e-03 1 200.5098 150.9106)" font-family="Liberation Sans, Helvetica, Arial, sans-serif" font-size="20.2723">A</text><text transform="matrix(1 4.500000e-03 -4.500000e-03 1 248.1357 151.126)" font-family="Liberation Sans, Helvetica, Arial, sans-serif" font-size="20.2723">T</text></g><g><rect x="225.75" y="242.62" transform="matrix(-1 -4.506486e-03 4.506486e-03 -1 511.89 509.0821)" fill="#C69DC9" stroke="#000000" stroke-linecap="round" stroke-linejoin="round" width="61.54" height="22.69"></rect><polygon fill="#AAD29A" stroke="#000000" stroke-linecap="round" stroke-linejoin="round" points="184.05,242.3 229.66,242.5 239.99,253.65 229.56,265.19 183.95,264.98"></polygon><text transform="matrix(1 4.500000e-03 -4.500000e-03 1 200.585 261.3169)" font-family="Liberation Sans, Helvetica, Arial, sans-serif" font-size="20.2723">T</text><text transform="matrix(1 4.500000e-03 -4.500000e-03 1 247.0684 261.5259)" font-family="Liberation Sans, Helvetica, Arial, sans-serif" font-size="20.2723">A</text></g><g><rect x="183.67" y="316.4" transform="matrix(1 4.456162e-03 -4.456162e-03 1 1.4626 -0.9427)" fill="#C69DC9" stroke="#000000" stroke-linecap="round" stroke-linejoin="round" width="57.2" height="22.69"></rect><polygon fill="#AAD29A" stroke="#000000" stroke-linecap="round" stroke-linejoin="round" points="286.91,339.42 236.96,339.2 226.63,328.05 237.06,316.52 287.01,316.74"></polygon><text transform="matrix(1 4.500000e-03 -4.500000e-03 1 199.6875 334.3267)" font-family="Liberation Sans, Helvetica, Arial, sans-serif" font-size="20.2723">A</text><text transform="matrix(1 4.500000e-03 -4.500000e-03 1 247.3115 334.5376)" font-family="Liberation Sans, Helvetica, Arial, sans-serif" font-size="20.2723">T</text></g><g><rect x="184.33" y="169.24" transform="matrix(1 4.490232e-03 -4.490232e-03 1 0.813 -0.9543)" fill="#F088B6" stroke="#000000" stroke-linecap="round" stroke-linejoin="round" width="57.2" height="22.68"></rect><path fill="#5BC5F2" stroke="#000000" stroke-linecap="round" stroke-linejoin="round" d="M287.57,192.25l-49.95-0.22 c0,0-8.44-1-8.39-11.62c0.04-9.68,8.5-11.06,8.5-11.06l49.96,0.22L287.57,192.25z"></path><text transform="matrix(1 4.500000e-03 -4.500000e-03 1 199.2227 187.6318)" font-family="Liberation Sans, Helvetica, Arial, sans-serif" font-size="20.2723">G</text><text transform="matrix(1 4.500000e-03 -4.500000e-03 1 246.8408 187.8452)" font-family="Liberation Sans, Helvetica, Arial, sans-serif" font-size="20.2723">C</text></g><g><rect x="228.81" y="205.99" transform="matrix(-1 -4.462617e-03 4.462617e-03 -1 515.2913 435.8187)" fill="#F088B6" stroke="#000000" stroke-linecap="round" stroke-linejoin="round" width="58.65" height="22.69"></rect><path fill="#5BC5F2" stroke="#000000" stroke-linecap="round" stroke-linejoin="round" d="M184.22,205.66l48.5,0.22 c0,0,8.45,1,8.4,11.62c-0.04,9.68-8.5,11.06-8.5,11.06l-48.5-0.21L184.22,205.66z"></path><text transform="matrix(1 4.500000e-03 -4.500000e-03 1 199.6201 224.4956)" font-family="Liberation Sans, Helvetica, Arial, sans-serif" font-size="20.2723">C</text><text transform="matrix(1 4.500000e-03 -4.500000e-03 1 246.1113 224.7026)" font-family="Liberation Sans, Helvetica, Arial, sans-serif" font-size="20.2723">G</text></g><g><rect x="183.83" y="279.24" transform="matrix(1 4.507381e-03 -4.507381e-03 1 1.3119 -0.9546)" fill="#F088B6" stroke="#000000" stroke-linecap="round" stroke-linejoin="round" width="57.2" height="22.69"></rect><path fill="#5BC5F2" stroke="#000000" stroke-linecap="round" stroke-linejoin="round" d="M287.07,302.27l-49.95-0.22 c0,0-8.44-1-8.4-11.62c0.05-9.68,8.5-11.07,8.5-11.07l49.96,0.22L287.07,302.27z"></path><text transform="matrix(1 4.500000e-03 -4.500000e-03 1 198.7266 297.9458)" font-family="Liberation Sans, Helvetica, Arial, sans-serif" font-size="20.2723">G</text><text transform="matrix(1 4.500000e-03 -4.500000e-03 1 246.3467 298.1567)" font-family="Liberation Sans, Helvetica, Arial, sans-serif" font-size="20.2723">C</text></g><path fill="#FFE596" stroke="#000000" stroke-linecap="round" stroke-linejoin="round" d="M71.61,25.95 c-2.85-5.23,5.24-18.71,5.24-18.71c-4.04,2.03-10.8,14.55-7.81,21.7c3.73,8.9,14.19,7.06,16.14,0.31 C85.18,29.25,76.44,34.84,71.61,25.95z"></path><path fill="#FFE596" stroke="#000000" stroke-linecap="round" stroke-linejoin="round" d="M63.64,32.86 C55.64,19.53,90.19,1.29,90.19,1.29c-4.03,2.03-34.98,8.75-32.16,29.59c2.34,17.29,22.51,14.91,21.2-0.56 C79.24,30.31,71.33,45.7,63.64,32.86z"></path><path fill="#FFE596" stroke="#000000" stroke-linecap="round" stroke-linejoin="round" d="M2.07,74.34 c0.18,20.14,36.31,52.25,94.39,28.68c60.37-24.48,55.6-23.77,72.84-20.36c0,0-9.28-5.16-11.18-5.78 c-14.59-4.74-40.73-0.1-78.26,14.46C29.16,111.01,2.07,74.34,2.07,74.34z"></path><path fill="#FFE596" stroke="#000000" stroke-linecap="round" stroke-linejoin="round" d="M7.89,110.39 c16.88,50.5,58.99,57.58,115.72,30.14c88.62-42.88,119.33-64.87,139.92-39.35c0,0,6.54-1.5,4.88-2.75 c-36.29-27.48-106.86,3.61-160.43,28.66C28.43,164.27,7.89,110.39,7.89,110.39z"></path><linearGradient id="SVGID_1_" gradientUnits="userSpaceOnUse" x1="380.3604" y1="211.5659" x2="365.9001" y2="208.0758" gradientTransform="matrix(0.9537 0.3008 -0.3008 0.9537 -194.1238 -304.2583)"><stop offset="5.618000e-03" style="stop-color:#FFE596"></stop><stop offset="0.5449" style="stop-color:#FFFFFF"></stop><stop offset="1" style="stop-color:#FFE596"></stop></linearGradient><path fill="url(#SVGID_1_)" stroke="#000000" stroke-linecap="round" stroke-linejoin="round" d="M81.34,4.5 C86.3-0.38,96-1.92,106.66,6.41c16.58,12.96,20.37,13.15,20.37,13.15s-1.33,1.56-4.12,1.42c-5.7-0.28-14.02-7.09-20.73-12.62 C93.45,1.14,81.34,4.5,81.34,4.5z"></path><path fill="#FFE596" stroke="#000000" stroke-linecap="round" stroke-linejoin="round" d="M32.93,65.06 C13.08,54,21.23,28.5,21.23,28.5c-6.57,11.53-5.85,37.63,13.28,46c21.03,9.19,32.56-12.7,30.76-20.48 C65.28,54.02,56.79,78.36,32.93,65.06z"></path><path fill="#FFE596" stroke="#000000" stroke-linecap="round" stroke-linejoin="round" d="M43.4,46.47 c-6.42-6.22-1.31-24.14-1.31-24.14C36.1,34.06,35.74,47.3,42.8,53.19c12.06,10.06,25.04-2.37,23.81-11.47 C66.61,41.71,59.04,61.62,43.4,46.47z"></path><linearGradient id="SVGID_2_" gradientUnits="userSpaceOnUse" x1="359.3174" y1="283.3745" x2="331.3057" y2="294.8817" gradientTransform="matrix(0.9537 0.3008 -0.3008 0.9537 -194.1238 -304.2583)"><stop offset="5.618000e-03" style="stop-color:#FFE596"></stop><stop offset="0.5449" style="stop-color:#FFFFFF"></stop><stop offset="1" style="stop-color:#FFE596"></stop></linearGradient><path fill="url(#SVGID_2_)" stroke="#000000" stroke-linecap="round" stroke-linejoin="round" d="M29.52,58.66 C3.53,78.84,7.89,113.08,7.89,113.08C-2.75,78.84,17.26,56.59,33.3,46.57c8.4-5.25,29.05-12.46,31.98,7.45 C65.28,54.02,55.17,38.74,29.52,58.66z"></path><linearGradient id="SVGID_3_" gradientUnits="userSpaceOnUse" x1="348.0098" y1="267.1636" x2="324.5613" y2="272.5391" gradientTransform="matrix(0.9537 0.3008 -0.3008 0.9537 -194.1238 -304.2583)"><stop offset="5.618000e-03" style="stop-color:#FFE596"></stop><stop offset="0.5449" style="stop-color:#FFFFFF"></stop><stop offset="1" style="stop-color:#FFE596"></stop></linearGradient><path fill="url(#SVGID_3_)" stroke="#000000" stroke-linecap="round" stroke-linejoin="round" d="M25.43,40.31 C0.03,55.43,2.55,80.05,2.55,80.05c-6.51-20.71,7.9-38.66,23.73-48.96c12.71-8.27,40.08-10.47,40.23,11.67 C66.51,42.76,59.85,19.83,25.43,40.31z"></path><linearGradient id="SVGID_4_" gradientUnits="userSpaceOnUse" x1="371.7686" y1="218.3608" x2="360.4323" y2="214.2394" gradientTransform="matrix(0.9537 0.3008 -0.3008 0.9537 -194.1238 -304.2583)"><stop offset="5.618000e-03" style="stop-color:#FFE596"></stop><stop offset="0.5449" style="stop-color:#FFFFFF"></stop><stop offset="1" style="stop-color:#FFE596"></stop></linearGradient><path fill="url(#SVGID_4_)" stroke="#000000" stroke-linecap="round" stroke-linejoin="round" d="M73.75,10.04 c3.67-6.21,13.14-6.37,22.59,1.37c12.09,9.9,19.04,11.54,20.24,10.84c0,0-4.09,1.53-4.45,1.62c-7.32,1.92-14.99-6.59-19.79-10.12 C81.71,5.93,73.75,10.04,73.75,10.04z"></path><linearGradient id="SVGID_5_" gradientUnits="userSpaceOnUse" x1="354.6572" y1="234.2319" x2="342.9734" y2="231.1841" gradientTransform="matrix(0.9537 0.3008 -0.3008 0.9537 -194.1238 -304.2583)"><stop offset="5.618000e-03" style="stop-color:#FFE596"></stop><stop offset="0.5449" style="stop-color:#FFFFFF"></stop><stop offset="1" style="stop-color:#FFE596"></stop></linearGradient><path fill="url(#SVGID_5_)" stroke="#000000" stroke-linecap="round" stroke-linejoin="round" d="M61.85,10.86 c-18.97-1-20.4,13.48-20.4,13.48c1.5-4.66,6.15-18.41,24.43-17.82c20.6,0.67,24.38,19.64,18.04,25.35 C83.92,31.88,89.43,12.31,61.85,10.86z"></path><linearGradient id="SVGID_6_" gradientUnits="userSpaceOnUse" x1="348.0244" y1="245.3862" x2="330.0645" y2="242.8201" gradientTransform="matrix(0.9537 0.3008 -0.3008 0.9537 -194.1238 -304.2583)"><stop offset="5.618000e-03" style="stop-color:#FFE596"></stop><stop offset="0.5449" style="stop-color:#FFFFFF"></stop><stop offset="1" style="stop-color:#FFE596"></stop></linearGradient><path fill="url(#SVGID_6_)" stroke="#000000" stroke-linecap="round" stroke-linejoin="round" d="M49.98,14.74 c-24.81-0.12-31.33,21.58-31.33,21.58C20.2,22.58,29.77,8.45,51.44,8.62c16.64,0.13,31.92,11.71,27.32,26.75 C78.76,35.36,78.91,14.88,49.98,14.74z"></path><g><polygon fill="#F088B6" stroke="#000000" stroke-linecap="round" stroke-linejoin="round" points="150.03,76.2 123.26,110.85 103.97,114.43 130.72,79.78"></polygon></g><path fill="#5BC5F2" stroke="#000000" stroke-linecap="round" stroke-linejoin="round" d="M119.75,105.63 c4.32-0.25,4.87,3.62,4.87,3.62l-20.87,30.35l-22.15,6.82l20.93-30.27C102.53,116.15,109.13,106.25,119.75,105.63z"></path><g><polygon fill="#F088B6" stroke="#000000" stroke-linecap="round" stroke-linejoin="round" points="168.35,92.47 146.46,122.58 124.41,131.01 149.17,95.7"></polygon><path fill="#5BC5F2" stroke="#000000" stroke-linecap="round" stroke-linejoin="round" d="M173.14,85.09l-9.69,14.52 c0,0-4.24,4.83-9.48,6.53c-7.23,2.34-10.81-1.75-10.81-1.75l18.07-25.61L173.14,85.09z"></path></g><g><polygon fill="#C69DC9" stroke="#000000" stroke-linecap="round" stroke-linejoin="round" points="91.33,113.52 65.78,149.1 51.09,147.98 69.12,121.83"></polygon><polygon fill="#AAD29A" stroke="#000000" stroke-linecap="round" stroke-linejoin="round" points="111.43,86.7 86.11,120.8 74.38,126.69 69.12,121.83 90.6,92.9"></polygon></g><g><polygon fill="#C69DC9" stroke="#000000" stroke-linecap="round" stroke-linejoin="round" points="231.95,96.44 186.27,98.71 176.35,93.01 209.36,91.06"></polygon><polygon fill="#AAD29A" stroke="#000000" stroke-linecap="round" stroke-linejoin="round" points="267,95.02 222.61,96.9 209.55,94.55 209.36,91.06 247.03,89.47"></polygon></g><g><polygon fill="#C69DC9" stroke="#000000" stroke-linecap="round" stroke-linejoin="round" points="71.65,98.72 51.5,123.87 38.51,119.49 52.99,100.32"></polygon></g><polygon fill="#AAD29A" stroke="#000000" stroke-linecap="round" stroke-linejoin="round" points="52.82,115.05 53.43,121.29 38.39,143.48 26.25,135.09 39.67,118.16"></polygon><g><polygon fill="#F088B6" stroke="#000000" stroke-linecap="round" stroke-linejoin="round" points="35.87,99.51 15.85,127.91 9.49,115.76 18,103.65"></polygon><path fill="#5BC5F2" stroke="#000000" stroke-linecap="round" stroke-linejoin="round" d="M37.2,99.14l-9.81,12.96 c0,0-4.93,2.1-8.15-0.98c-2.64-2.52-1.23-7.48-1.23-7.48l7.1-9.02L37.2,99.14z"></path></g><g><polygon fill="#F088B6" stroke="#000000" stroke-linecap="round" stroke-linejoin="round" points="227.69,102.2 278.24,102.17 286.63,124.11 227.99,124.89"></polygon><path fill="#5BC5F2" stroke="#000000" stroke-linecap="round" stroke-linejoin="round" d="M183.05,102.79l48.5-0.64 c0,0,8.46,0.86,8.6,11.47c0.13,9.68-8.3,11.21-8.3,11.21l-48.5,0.64L183.05,102.79z"></path><text transform="matrix(0.9999 -0.0132 0.0132 0.9999 198.7871 121.354)" font-family="Liberation Sans, Helvetica, Arial, sans-serif" font-size="20.2723">C</text><text transform="matrix(0.9999 -0.0132 0.0132 0.9999 245.2754 120.7383)" font-family="Liberation Sans, Helvetica, Arial, sans-serif" font-size="20.2723">G</text></g><linearGradient id="SVGID_7_" gradientUnits="userSpaceOnUse" x1="141.8672" y1="150.686" x2="121.7443" y2="108.8929"><stop offset="5.618000e-03" style="stop-color:#FFE596"></stop><stop offset="0.5449" style="stop-color:#FFFFFF"></stop><stop offset="1" style="stop-color:#FFE596"></stop></linearGradient><path fill="url(#SVGID_7_)" stroke="#000000" stroke-linecap="round" stroke-linejoin="round" d="M174.66,358.25 c0-63.76-0.02-207.15,0-208.07c0.58-27.48,0.58-87.55-61.53-69.88c0,0,19.35-4.1,32.45-5.5c44.32-4.71,43.27,48.68,44.23,63.6 v219.85"></path><linearGradient id="SVGID_8_" gradientUnits="userSpaceOnUse" x1="244.0088" y1="155.3882" x2="226.0106" y2="123.3041"><stop offset="5.618000e-03" style="stop-color:#FFE596"></stop><stop offset="0.5449" style="stop-color:#FFFFFF"></stop><stop offset="1" style="stop-color:#FFE596"></stop></linearGradient><path stroke-linecap="round" stroke="#000000" d="M282.57,355.28 V155.45 c0.33,-40.83 -9.88,-75.77 -66.81,-65.95 c29.85,-5.15 33.92,-3.92 46.72,-1.57 c23.55,4.32 36.68,24.34 37.3,58.1 v209.25 " fill="url(#SVGID_8_)" stroke-linejoin="round"></path></g><g id="text"><text transform="matrix(1 0 0 1 172.0205 24.3945)" font-family="Liberation Sans, Helvetica, Arial, sans-serif" font-size="16">DNA double helix</text><text transform="matrix(1 0 0 1 196.8467 382.0884)" font-family="Liberation Sans, Helvetica, Arial, sans-serif" font-size="16">Base pairs</text><g><path fill="none" stroke="#0069B4" stroke-width="4.609" d="M0,189.43"></path></g><polyline fill="none" stroke="#000000" points="207.09,342.6 207.09,356.6 260.42,356.6 260.42,342.6"></polyline><line fill="none" stroke="#000000" x1="233.75" y1="355.93" x2="233.75" y2="369.93"></line><polyline fill="none" stroke="#000000" points="178.83,111.93 178.83,51.27 288.84,51.27 288.84,113.27"></polyline><line fill="none" stroke="#000000" x1="233.83" y1="29.93" x2="233.83" y2="51.27"></line></g><text stroke="none" style="outline-style:none;" id="text1" stroke-width="1px" x="142.740005px" text-rendering="geometricPrecision" font-family="Helvetica" fill="#000000" font-size="14px" y="360.847015px" transform="scale(1 1) rotate(-90 133.734375 338.210938) translate(-7.000338 30.001434)" text-anchor="middle">5’ end</text><text stroke="none" style="outline-style:none;" id="text2" stroke-width="1px" x="145.740158px" text-rendering="geometricPrecision" font-family="Helvetica" y="468.852203px" fill="#000000" font-size="14px" transform="scale(1 1) rotate(-90 133.734375 338.210938) translate(-7.000338 30.001434)" text-anchor="middle">3
’ end</text></svg>